<?xml version="1.0" encoding="utf-8"?>
<!-- Generator: Adobe Illustrator 24.2.3, SVG Export Plug-In . SVG Version: 6.00 Build 0)  -->
<svg version="1.1" id="Layer_1" xmlns="http://www.w3.org/2000/svg" xmlns:xlink="http://www.w3.org/1999/xlink" x="0px" y="0px"
	 viewBox="0 0 1538.5 1870.5" style="enable-background:new 0 0 1538.5 1870.5;" xml:space="preserve">
<style type="text/css">
	.st0{fill-rule:evenodd;clip-rule:evenodd;fill:#FFFF00;stroke:#000000;stroke-width:2;}
	.st1{fill-rule:evenodd;clip-rule:evenodd;fill:#F65C51;stroke:#F65C51;stroke-width:2;}
	.st2{fill-rule:evenodd;clip-rule:evenodd;fill:#41527F;stroke:#5161A5;stroke-width:2;}
	.st3{fill:#1A1F35;}
	.st4{opacity:0.2;fill-rule:evenodd;clip-rule:evenodd;stroke:#000000;stroke-miterlimit:10;}
</style>
<g>
	<path class="st0" d="M792.7,124.2h5.6l24,12.1c16,8.1,26.6,13.3,31.7,15.8c5.1,2.5,22.7,10.6,52.6,24.4
		c29.9,13.7,45.3,20.7,46.3,20.8c1,0.1,8.9,3.4,23.8,9.8c14.9,6.4,26.3,11.1,34.3,14.2c8,3.1,19.6,7.2,34.8,12.5
		c15.2,5.3,24.7,8.6,28.7,10c4,1.4,9,3.1,15,5c6,1.9,13.7,4.3,23.2,7.1c9.4,2.8,21.5,6.1,36,10c14.6,3.9,28.7,7.4,42.5,10.4
		c13.7,3.1,22.6,5,26.6,5.8c4,0.8,16.7,3.2,38.2,7.1c21.5,3.9,34.9,6.2,40.3,7.1c5.4,0.8,18.7,2.9,39.9,6.2c21.2,3.3,31.9,5,32.2,5
		s10.6,1.9,30.9,5.8c20.3,3.9,30.5,5.9,30.7,6l0.2,0.2l-1.3,62.1c-0.9,41.4-3,94.8-6.4,160.4c-3.4,65.5-6.1,111.3-8.2,137.5
		c-2,26.1-4.3,48.5-6.9,67.1c-2.6,18.6-5.6,36.2-9,52.9c-3.4,16.7-7.2,33.5-11.2,50.4c-4,16.9-7.6,31.8-10.7,44.6
		c-3.1,12.8-6.9,26.5-11.2,41.2c-4.3,14.7-6.9,23.6-7.7,26.7c-0.9,3.1-2.1,6.9-3.9,11.7c-1.7,4.7-3.7,10.6-6,17.5
		c-2.3,6.9-5.9,16.9-10.7,30c-4.9,13.1-8.9,23.5-12,31.2c-3.1,7.8-7,17.1-11.6,27.9c-4.6,10.8-10.4,23.9-17.6,39.2
		c-7.2,15.3-11.4,24.2-12.9,26.7c-1.4,2.5-6.6,11.6-15.7,27.3s-14.4,25-16.3,27.9c-1.9,2.9-6.3,10.3-13.3,22.1
		c-7,11.8-11.6,19.3-13.7,22.5c-2.1,3.2-5.4,8.2-9.9,15s-8,12.1-10.7,15.8c-2.7,3.7-5.9,8.2-9.4,13.3c-3.6,5.1-7,9.9-10.3,14.2
		c-3.3,4.3-5.9,7.9-7.7,10.8c-1.9,2.9-4.6,6.7-8.2,11.2c-3.6,4.6-7,9.2-10.3,13.7c-3.3,4.6-6.9,9.3-10.7,14.2
		c-3.9,4.9-7.2,9-9.9,12.5c-2.7,3.5-8.5,10.1-17.4,19.8c-8.9,9.7-19.3,20.8-31.3,33.3c-12,12.5-22.6,23.2-31.7,32.1
		c-9.2,8.9-15.2,14.5-18.2,16.9c-3,2.4-10,8.3-21,17.9c-11,9.6-17.7,15.4-20.2,17.5c-2.4,2.1-8.4,7.2-18,15.4s-15.9,13.5-18.9,15.8
		c-3,2.4-6.4,5.1-10.3,8.3c-3.9,3.2-9.2,7.6-16.1,13.1c-6.9,5.6-12.1,9.6-15.7,12.3c-3.6,2.6-7,5-10.3,7.1c-3.3,2.1-9.3,5.7-18,10.8
		c-8.7,5.1-14.4,8.6-17.2,10.4c-2.7,1.8-5.8,3.7-9.2,5.6c-3.4,1.9-7,4.2-10.7,6.7c-3.7,2.5-6.4,4.3-8.2,5.4
		c-1.7,1.1-5.4,3.1-11.2,5.8c-5.7,2.8-12.6,6-20.6,9.6c-8,3.6-13.6,6-16.7,7.1l-4.7,1.7l-5.1-1.2c-3.4-0.8-7.2-2.2-11.2-4.2
		c-4-1.9-10.7-5.3-20.2-10c-9.4-4.7-14.9-7.6-16.3-8.7c-1.4-1.1-5.1-3.5-10.9-7.3c-5.9-3.7-10.3-6.5-13.3-8.3
		c-3-1.8-8.9-5.3-17.6-10.4c-8.7-5.1-14.7-8.7-18-10.8c-3.3-2.1-6.7-4.4-10.3-7.1c-3.6-2.6-7.7-5.8-12.2-9.4
		c-4.6-3.6-10.7-8.5-18.2-14.8c-7.6-6.2-14.2-11.7-19.7-16.2c-5.6-4.6-13.7-11.5-24.5-20.8c-10.7-9.3-17.6-15.1-20.6-17.5
		c-3-2.4-9.6-7.9-19.7-16.7c-10.2-8.7-15.8-13.7-16.9-14.8c-1.1-1.1-6.2-6-15.2-14.8c-9-8.7-15.3-15-18.9-18.7
		c-3.6-3.7-11.4-12.1-23.6-25s-19.4-20.8-21.9-23.7c-2.4-2.9-6-7.2-10.7-12.9c-4.7-5.7-8.4-10.3-11.2-13.7
		c-2.7-3.5-5.4-7.1-8.2-10.8c-2.7-3.7-5.6-7.6-8.6-11.7c-3-4-5.7-7.6-8.2-10.8c-2.4-3.2-4.5-6-6.2-8.5c-1.7-2.5-4.1-5.8-7.1-9.8
		c-3-4-5.6-7.6-7.7-10.8c-2.1-3.2-5-7.4-8.6-12.5c-3.6-5.1-6.3-9.2-8.2-12.1c-1.9-2.9-4.9-7.5-9-13.7c-4.1-6.2-6.9-10.6-8.2-12.9
		c-1.3-2.4-4.9-8.3-10.7-17.9c-5.9-9.6-9.7-15.8-11.6-18.7c-1.9-2.9-6.5-10.9-13.9-23.9c-7.4-13.1-13-22.9-16.7-29.6
		c-3.7-6.7-7-12.9-9.9-18.7c-2.9-5.8-6.9-14.6-12-26.2c-5.1-11.7-7.7-17.6-7.7-17.9c0-0.3-2.6-6.7-7.7-19.2
		c-5.1-12.5-9.2-22.4-12-29.6c-2.9-7.2-6.9-18.2-12-32.9c-5.1-14.7-10.3-30.4-15.4-47.1c-5.1-16.7-10.9-36.9-17.2-60.8
		c-6.3-23.9-10.7-41.7-13.3-53.3c-2.6-11.7-6.1-28.6-10.7-50.8c-4.6-22.2-7.3-36.8-8.2-43.7c-0.9-6.9-2.7-28.2-5.6-63.7
		c-2.9-35.5-4.7-62.3-5.6-80.4c-0.9-18-1.9-37.2-3-57.5c-1.1-20.3-2.7-53.5-4.7-99.5s-3-78.7-3-97.9v-28.7l2.8-1.5
		c1.9-1,6.9-2.2,15.2-3.5c8.3-1.4,19.7-3.2,34.3-5.4c14.6-2.2,36.8-5.8,66.5-10.8c29.7-5,51.1-8.6,63.9-10.8
		c12.9-2.2,29.9-5.7,51.1-10.4s39.5-9.2,54.9-13.3c15.4-4.2,28.7-8.1,39.9-11.7c11.2-3.6,19.9-6.4,26.2-8.3c6.3-1.9,12.3-3.9,18-5.8
		c5.7-1.9,17.2-6.1,34.3-12.5c17.2-6.4,33.2-12.8,48.3-19.4c15-6.5,23-9.9,24-10c1-0.1,8.2-3.3,21.7-9.4
		c13.4-6.1,25.6-11.7,36.5-16.7c10.9-5,21.6-10,32.2-15c10.6-5,23.7-11.5,39.5-19.6l23.6-12.1L792.7,124.2L792.7,124.2z"/>
	<path class="st0" d="M771.1,138.4h5.6l24,12.1c16,8.1,26.6,13.3,31.7,15.8c5.1,2.5,22.7,10.6,52.6,24.4
		c29.9,13.7,45.3,20.7,46.3,20.8c1,0.1,8.9,3.4,23.8,9.8c14.9,6.4,26.3,11.1,34.3,14.2c8,3.1,19.6,7.2,34.8,12.5
		c15.2,5.3,24.7,8.6,28.7,10c4,1.4,9,3.1,15,5c6,1.9,13.7,4.3,23.2,7.1c9.4,2.8,21.5,6.1,36,10c14.6,3.9,28.7,7.4,42.5,10.4
		c13.7,3.1,22.6,5,26.6,5.8c4,0.8,16.7,3.2,38.2,7.1c21.5,3.9,34.9,6.2,40.3,7.1c5.4,0.8,18.7,2.9,39.9,6.2c21.2,3.3,31.9,5,32.2,5
		c0.3,0,10.6,1.9,30.9,5.8c20.3,3.9,30.5,5.9,30.7,6l0.2,0.2l-1.3,62.1c-0.9,41.4-3,94.8-6.4,160.4c-3.4,65.5-6.1,111.3-8.2,137.5
		c-2,26.1-4.3,48.5-6.9,67.1c-2.6,18.6-5.6,36.2-9,52.9c-3.4,16.7-7.2,33.5-11.2,50.4c-4,16.9-7.6,31.8-10.7,44.6
		c-3.1,12.8-6.9,26.5-11.2,41.2c-4.3,14.7-6.9,23.6-7.7,26.7c-0.9,3.1-2.1,6.9-3.9,11.7c-1.7,4.7-3.7,10.6-6,17.5s-5.9,16.9-10.7,30
		c-4.9,13.1-8.9,23.5-12,31.2c-3.1,7.8-7,17.1-11.6,27.9c-4.6,10.8-10.4,23.9-17.6,39.2c-7.1,15.3-11.4,24.2-12.9,26.7
		c-1.4,2.5-6.6,11.6-15.7,27.3c-9,15.7-14.4,25-16.3,27.9c-1.9,2.9-6.3,10.3-13.3,22.1c-7,11.8-11.6,19.3-13.7,22.5
		c-2.1,3.2-5.4,8.2-9.9,15c-4.4,6.8-8,12.1-10.7,15.8c-2.7,3.7-5.9,8.2-9.4,13.3c-3.6,5.1-7,9.9-10.3,14.2
		c-3.3,4.3-5.9,7.9-7.7,10.8c-1.9,2.9-4.6,6.7-8.2,11.2c-3.6,4.6-7,9.2-10.3,13.7c-3.3,4.6-6.9,9.3-10.7,14.2
		c-3.9,4.9-7.2,9-9.9,12.5c-2.7,3.5-8.5,10.1-17.4,19.8c-8.9,9.7-19.3,20.8-31.3,33.3c-12,12.5-22.6,23.2-31.7,32.1
		c-9.2,8.9-15.2,14.5-18.2,16.9c-3,2.4-10,8.3-21,17.9c-11,9.6-17.7,15.4-20.2,17.5c-2.4,2.1-8.4,7.2-18,15.4
		c-9.6,8.2-15.9,13.5-18.9,15.8c-3,2.4-6.4,5.1-10.3,8.3c-3.9,3.2-9.2,7.6-16.1,13.1c-6.9,5.6-12.1,9.6-15.7,12.3
		c-3.6,2.6-7,5-10.3,7.1c-3.3,2.1-9.3,5.7-18,10.8c-8.7,5.1-14.4,8.6-17.2,10.4c-2.7,1.8-5.8,3.7-9.2,5.6c-3.4,1.9-7,4.2-10.7,6.7
		c-3.7,2.5-6.4,4.3-8.2,5.4c-1.7,1.1-5.4,3.1-11.2,5.8c-5.7,2.8-12.6,6-20.6,9.6c-8,3.6-13.6,6-16.7,7.1l-4.7,1.7l-5.1-1.2
		c-3.4-0.8-7.2-2.2-11.2-4.2c-4-1.9-10.7-5.3-20.2-10c-9.4-4.7-14.9-7.6-16.3-8.7c-1.4-1.1-5.1-3.5-10.9-7.3
		c-5.9-3.7-10.3-6.5-13.3-8.3c-3-1.8-8.9-5.3-17.6-10.4c-8.7-5.1-14.7-8.7-18-10.8c-3.3-2.1-6.7-4.4-10.3-7.1
		c-3.6-2.6-7.7-5.8-12.2-9.4s-10.7-8.5-18.2-14.8c-7.6-6.2-14.2-11.7-19.7-16.2c-5.6-4.6-13.7-11.5-24.5-20.8
		c-10.7-9.3-17.6-15.1-20.6-17.5c-3-2.4-9.6-7.9-19.7-16.7c-10.2-8.7-15.8-13.7-16.9-14.8c-1.1-1.1-6.2-6-15.2-14.8
		c-9-8.7-15.3-15-18.9-18.7c-3.6-3.7-11.4-12.1-23.6-25c-12.2-12.9-19.4-20.8-21.9-23.7c-2.4-2.9-6-7.2-10.7-12.9
		c-4.7-5.7-8.4-10.3-11.2-13.7c-2.7-3.5-5.4-7.1-8.2-10.8c-2.7-3.7-5.6-7.6-8.6-11.7c-3-4-5.7-7.6-8.2-10.8c-2.4-3.2-4.5-6-6.2-8.5
		c-1.7-2.5-4.1-5.8-7.1-9.8c-3-4-5.6-7.6-7.7-10.8c-2.1-3.2-5-7.4-8.6-12.5c-3.6-5.1-6.3-9.2-8.2-12.1c-1.9-2.9-4.9-7.5-9-13.7
		c-4.1-6.2-6.9-10.6-8.2-12.9c-1.3-2.4-4.9-8.3-10.7-17.9c-5.9-9.6-9.7-15.8-11.6-18.7c-1.9-2.9-6.5-10.9-13.9-23.9
		s-13-22.9-16.7-29.6c-3.7-6.7-7-12.9-9.9-18.7c-2.9-5.8-6.9-14.6-12-26.2c-5.1-11.7-7.7-17.6-7.7-17.9c0-0.3-2.6-6.7-7.7-19.2
		c-5.1-12.5-9.2-22.4-12-29.6c-2.9-7.2-6.9-18.2-12-32.9c-5.1-14.7-10.3-30.4-15.4-47.1c-5.1-16.7-10.9-36.9-17.2-60.8
		c-6.3-23.9-10.7-41.7-13.3-53.3c-2.6-11.7-6.1-28.6-10.7-50.8c-4.6-22.2-7.3-36.8-8.2-43.7c-0.9-6.9-2.7-28.2-5.6-63.7
		c-2.9-35.5-4.7-62.3-5.6-80.4c-0.9-18-1.9-37.2-3-57.5s-2.7-53.5-4.7-99.5s-3-78.7-3-97.9v-28.7l2.8-1.5c1.9-1,6.9-2.2,15.2-3.5
		c8.3-1.4,19.7-3.2,34.3-5.4c14.6-2.2,36.8-5.8,66.5-10.8c29.7-5,51.1-8.6,63.9-10.8c12.9-2.2,29.9-5.7,51.1-10.4
		s39.5-9.2,54.9-13.3c15.4-4.2,28.7-8.1,39.9-11.7c11.2-3.6,19.9-6.4,26.2-8.3c6.3-1.9,12.3-3.9,18-5.8c5.7-1.9,17.2-6.1,34.3-12.5
		c17.2-6.4,33.2-12.8,48.3-19.4c15-6.5,23-9.9,24-10c1-0.1,8.2-3.3,21.7-9.4c13.4-6.1,25.6-11.7,36.5-16.7c10.9-5,21.6-10,32.2-15
		c10.6-5,23.7-11.5,39.5-19.6l23.6-12.1L771.1,138.4L771.1,138.4z"/>
</g>
<path class="st1" d="M790.8,66h6l25.9,13c17.3,8.7,28.7,14.4,34.3,17.1c5.6,2.7,24.5,11.5,56.7,26.3c32.3,14.8,48.9,22.3,50,22.5
	c1.1,0.1,9.6,3.7,25.7,10.6c16.1,6.9,28.4,12,37,15.3c8.6,3.3,21.1,7.8,37.5,13.5c16.4,5.7,26.7,9.3,31,10.8
	c4.3,1.5,9.7,3.3,16.2,5.4c6.5,2.1,14.8,4.6,25,7.6c10.2,3,23.2,6.6,38.9,10.8c15.7,4.2,31,7.9,45.8,11.2
	c14.8,3.3,24.4,5.4,28.7,6.3c4.3,0.9,18.1,3.4,41.2,7.6s37.7,6.7,43.5,7.6c5.9,0.9,20.2,3.1,43.1,6.7c22.8,3.6,34.4,5.4,34.7,5.4
	s11.4,2.1,33.3,6.3c21.9,4.2,33,6.4,33.1,6.5l0.2,0.2l-1.4,67c-0.9,44.7-3.2,102.4-6.9,173.1s-6.6,120.2-8.8,148.4
	c-2.2,28.2-4.6,52.3-7.4,72.4c-2.8,20.1-6,39.1-9.7,57.1c-3.7,18-7.7,36.1-12,54.4c-4.3,18.3-8.2,34.3-11.6,48.1
	c-3.4,13.8-7.4,28.6-12,44.5c-4.6,15.9-7.4,25.5-8.3,28.8c-0.9,3.3-2.3,7.5-4.2,12.6c-1.9,5.1-4,11.4-6.5,18.9
	c-2.5,7.5-6.3,18.3-11.6,32.4c-5.2,14.1-9.6,25.3-13,33.7s-7.6,18.4-12.5,30.1c-4.9,11.7-11.3,25.8-19,42.3
	c-7.7,16.5-12.3,26.1-13.9,28.8c-1.5,2.7-7.2,12.5-16.9,29.4c-9.7,16.9-15.6,27-17.6,30.1c-2,3.1-6.8,11.1-14.4,23.8
	c-7.6,12.7-12.5,20.8-14.8,24.3c-2.3,3.4-5.9,8.8-10.7,16.2c-4.8,7.3-8.6,13-11.6,17.1c-2.9,4-6.3,8.8-10.2,14.4
	c-3.9,5.5-7.6,10.6-11.1,15.3s-6.3,8.5-8.3,11.7c-2,3.1-4.9,7.2-8.8,12.1c-3.9,4.9-7.6,9.9-11.1,14.8c-3.5,4.9-7.4,10-11.6,15.3
	c-4.2,5.2-7.7,9.7-10.7,13.5c-2.9,3.7-9.2,10.9-18.8,21.4c-9.6,10.5-20.8,22.5-33.8,36s-24.4,25-34.3,34.6
	c-9.9,9.6-16.4,15.7-19.7,18.2c-3.2,2.5-10.8,9-22.7,19.3c-11.9,10.3-19.1,16.6-21.8,18.9c-2.6,2.2-9.1,7.8-19.4,16.6
	c-10.3,8.8-17.1,14.5-20.4,17.1c-3.2,2.5-6.9,5.5-11.1,9c-4.2,3.4-10,8.2-17.4,14.2c-7.4,6-13,10.4-16.9,13.3s-7.6,5.4-11.1,7.6
	c-3.5,2.2-10,6.1-19.4,11.7c-9.4,5.5-15.6,9.3-18.5,11.2c-2.9,1.9-6.3,4-10,6.1c-3.7,2.1-7.6,4.5-11.6,7.2s-6.9,4.6-8.8,5.8
	c-1.9,1.2-5.9,3.3-12,6.3s-13.6,6.4-22.2,10.3c-8.6,3.9-14.7,6.4-18.1,7.6l-5.1,1.8l-5.6-1.3c-3.7-0.9-7.7-2.4-12-4.5
	c-4.3-2.1-11.6-5.7-21.8-10.8c-10.2-5.1-16.1-8.2-17.6-9.4c-1.5-1.2-5.5-3.8-11.8-7.9c-6.3-4-11.1-7-14.4-9s-9.6-5.7-19-11.2
	c-9.4-5.5-15.9-9.4-19.4-11.7c-3.5-2.2-7.3-4.8-11.1-7.6c-3.9-2.8-8.3-6.2-13.2-10.1c-4.9-3.9-11.5-9.2-19.7-16
	c-8.2-6.7-15.3-12.6-21.3-17.5c-6-4.9-14.8-12.4-26.4-22.5c-11.6-10-19-16.3-22.2-18.9c-3.2-2.5-10.3-8.5-21.3-18
	s-17.1-14.8-18.3-16c-1.2-1.2-6.7-6.5-16.4-16c-9.7-9.4-16.5-16.2-20.4-20.2c-3.9-4-12.3-13-25.5-27c-13.1-13.9-21-22.5-23.6-25.6
	c-2.6-3.1-6.5-7.8-11.6-13.9c-5.1-6.1-9.1-11.1-12-14.8c-2.9-3.7-5.9-7.6-8.8-11.7c-2.9-4-6-8.2-9.3-12.6c-3.2-4.3-6.2-8.2-8.8-11.7
	c-2.6-3.4-4.9-6.5-6.7-9.2c-1.9-2.7-4.4-6.2-7.6-10.6c-3.2-4.3-6-8.2-8.3-11.7c-2.3-3.4-5.4-7.9-9.3-13.5c-3.9-5.5-6.8-9.9-8.8-13
	c-2-3.1-5.2-8.1-9.7-14.8c-4.5-6.7-7.4-11.4-8.8-13.9c-1.4-2.5-5.2-9-11.6-19.3c-6.3-10.3-10.5-17.1-12.5-20.2
	c-2-3.1-7-11.8-15-25.9c-8-14.1-14-24.7-18.1-31.9c-4-7.2-7.6-13.9-10.6-20.2c-3.1-6.3-7.4-15.7-13-28.3c-5.6-12.6-8.3-19-8.3-19.3
	c0-0.3-2.8-7.2-8.3-20.7c-5.6-13.5-9.9-24.1-13-31.9c-3.1-7.8-7.4-19.6-13-35.5c-5.6-15.9-11.1-32.8-16.7-50.8
	c-5.6-18-11.7-39.9-18.5-65.6c-6.8-25.8-11.6-45-14.4-57.5c-2.8-12.6-6.6-30.9-11.6-54.8c-4.9-24-7.9-39.7-8.8-47.2
	c-0.9-7.5-2.9-30.4-6-68.8c-3.1-38.4-5.1-67.3-6-86.8c-0.9-19.5-2-40.2-3.2-62c-1.2-21.9-2.9-57.7-5.1-107.5
	c-2.2-49.8-3.2-85-3.2-105.6v-31l3-1.6c2-1,7.5-2.3,16.4-3.8s21.3-3.4,37-5.8c15.7-2.4,39.7-6.3,71.8-11.7
	c32.1-5.4,55.1-9.3,69-11.7c13.9-2.4,32.3-6.1,55.1-11.2c22.8-5.1,42.6-9.9,59.3-14.4c16.7-4.5,31-8.7,43.1-12.6
	c12-3.9,21.5-6.9,28.2-9c6.8-2.1,13.3-4.2,19.4-6.3c6.2-2.1,18.5-6.6,37-13.5c18.5-6.9,35.9-13.9,52.1-20.9
	c16.2-7,24.8-10.6,25.9-10.8c1.1-0.1,8.9-3.5,23.4-10.1c14.5-6.6,27.6-12.6,39.4-18c11.7-5.4,23.3-10.8,34.7-16.2
	c11.4-5.4,25.6-12.4,42.6-21.1l25.5-13L790.8,66L790.8,66L790.8,66z"/>
<path class="st2" d="M793.3,131h5.6l24,12.1c16,8.1,26.6,13.3,31.7,15.8c5.1,2.5,22.7,10.6,52.6,24.4c29.9,13.7,45.3,20.7,46.3,20.8
	c1,0.1,8.9,3.4,23.8,9.8c14.9,6.4,26.3,11.1,34.3,14.2c8,3.1,19.6,7.2,34.8,12.5c15.2,5.3,24.7,8.6,28.7,10c4,1.4,9,3.1,15,5
	c6,1.9,13.7,4.3,23.2,7.1c9.4,2.8,21.5,6.1,36,10c14.6,3.9,28.7,7.4,42.5,10.4c13.7,3.1,22.6,5,26.6,5.8c4,0.8,16.7,3.2,38.2,7.1
	c21.5,3.9,34.9,6.2,40.3,7.1c5.4,0.8,18.7,2.9,39.9,6.2c21.2,3.3,31.9,5,32.2,5c0.3,0,10.6,1.9,30.9,5.8c20.3,3.9,30.5,5.9,30.7,6
	l0.2,0.2l-1.3,62.1c-0.9,41.4-3,94.8-6.4,160.4c-3.4,65.5-6.1,111.3-8.2,137.5c-2,26.1-4.3,48.5-6.9,67.1c-2.6,18.6-5.6,36.2-9,52.9
	c-3.4,16.7-7.2,33.5-11.2,50.4c-4,16.9-7.6,31.8-10.7,44.6c-3.1,12.8-6.9,26.5-11.2,41.2c-4.3,14.7-6.9,23.6-7.7,26.7
	c-0.9,3.1-2.1,6.9-3.9,11.7c-1.7,4.7-3.7,10.6-6,17.5c-2.3,6.9-5.9,16.9-10.7,30c-4.9,13.1-8.9,23.5-12,31.2
	c-3.1,7.8-7,17.1-11.6,27.9c-4.6,10.8-10.4,23.9-17.6,39.2c-7.2,15.3-11.4,24.2-12.9,26.7c-1.4,2.5-6.6,11.6-15.7,27.3
	c-9,15.7-14.4,25-16.3,27.9c-1.9,2.9-6.3,10.3-13.3,22.1c-7,11.8-11.6,19.3-13.7,22.5c-2.1,3.2-5.4,8.2-9.9,15
	c-4.4,6.8-8,12.1-10.7,15.8c-2.7,3.7-5.9,8.2-9.4,13.3c-3.6,5.1-7,9.9-10.3,14.2c-3.3,4.3-5.9,7.9-7.7,10.8
	c-1.9,2.9-4.6,6.7-8.2,11.2c-3.6,4.6-7,9.2-10.3,13.7c-3.3,4.6-6.9,9.3-10.7,14.2c-3.9,4.9-7.2,9-9.9,12.5
	c-2.7,3.5-8.5,10.1-17.4,19.8c-8.9,9.7-19.3,20.8-31.3,33.3c-12,12.5-22.6,23.2-31.7,32.1c-9.2,8.9-15.2,14.5-18.2,16.9
	c-3,2.4-10,8.3-21,17.9c-11,9.6-17.7,15.4-20.2,17.5c-2.4,2.1-8.4,7.2-18,15.4s-15.9,13.5-18.9,15.8c-3,2.4-6.4,5.1-10.3,8.3
	c-3.9,3.2-9.2,7.6-16.1,13.1c-6.9,5.6-12.1,9.6-15.7,12.3c-3.6,2.6-7,5-10.3,7.1c-3.3,2.1-9.3,5.7-18,10.8
	c-8.7,5.1-14.4,8.6-17.2,10.4c-2.7,1.8-5.8,3.7-9.2,5.6c-3.4,1.9-7,4.2-10.7,6.7c-3.7,2.5-6.4,4.3-8.2,5.4
	c-1.7,1.1-5.4,3.1-11.2,5.8c-5.7,2.8-12.6,6-20.6,9.6c-8,3.6-13.6,6-16.7,7.1l-4.7,1.7l-5.1-1.2c-3.4-0.8-7.2-2.2-11.2-4.2
	c-4-1.9-10.7-5.3-20.2-10c-9.4-4.7-14.9-7.6-16.3-8.7c-1.4-1.1-5.1-3.5-10.9-7.3c-5.9-3.7-10.3-6.5-13.3-8.3
	c-3-1.8-8.9-5.3-17.6-10.4c-8.7-5.1-14.7-8.7-18-10.8c-3.3-2.1-6.7-4.4-10.3-7.1c-3.6-2.6-7.7-5.8-12.2-9.4
	c-4.6-3.6-10.7-8.5-18.2-14.8c-7.6-6.2-14.2-11.7-19.7-16.2c-5.6-4.6-13.7-11.5-24.5-20.8c-10.7-9.3-17.6-15.1-20.6-17.5
	c-3-2.4-9.6-7.9-19.7-16.7c-10.2-8.7-15.8-13.7-16.9-14.8c-1.1-1.1-6.2-6-15.2-14.8c-9-8.7-15.3-15-18.9-18.7
	c-3.6-3.7-11.4-12.1-23.6-25s-19.4-20.8-21.9-23.7c-2.4-2.9-6-7.2-10.7-12.9c-4.7-5.7-8.4-10.3-11.2-13.7c-2.7-3.5-5.4-7.1-8.2-10.8
	c-2.7-3.7-5.6-7.6-8.6-11.7c-3-4-5.7-7.6-8.2-10.8c-2.4-3.2-4.5-6-6.2-8.5c-1.7-2.5-4.1-5.8-7.1-9.8c-3-4-5.6-7.6-7.7-10.8
	c-2.1-3.2-5-7.4-8.6-12.5c-3.6-5.1-6.3-9.2-8.2-12.1c-1.9-2.9-4.9-7.5-9-13.7c-4.1-6.2-6.9-10.6-8.2-12.9
	c-1.3-2.4-4.9-8.3-10.7-17.9c-5.9-9.6-9.7-15.8-11.6-18.7c-1.9-2.9-6.5-10.9-13.9-23.9c-7.4-13.1-13-22.9-16.7-29.6
	c-3.7-6.7-7-12.9-9.9-18.7c-2.9-5.8-6.9-14.6-12-26.2c-5.1-11.7-7.7-17.6-7.7-17.9c0-0.3-2.6-6.7-7.7-19.2
	c-5.1-12.5-9.2-22.4-12-29.6c-2.9-7.2-6.9-18.2-12-32.9c-5.1-14.7-10.3-30.4-15.4-47.1c-5.1-16.7-10.9-36.9-17.2-60.8
	c-6.3-23.9-10.7-41.7-13.3-53.3c-2.6-11.7-6.1-28.6-10.7-50.8c-4.6-22.2-7.3-36.8-8.2-43.7c-0.9-6.9-2.7-28.2-5.6-63.7
	c-2.9-35.5-4.7-62.3-5.6-80.4c-0.9-18-1.9-37.2-3-57.5c-1.1-20.3-2.7-53.5-4.7-99.5s-3-78.7-3-97.9v-28.7l2.8-1.5
	c1.9-1,6.9-2.2,15.2-3.5c8.3-1.4,19.7-3.2,34.3-5.4c14.6-2.2,36.8-5.8,66.5-10.8c29.7-5,51.1-8.6,63.9-10.8
	c12.9-2.2,29.9-5.7,51.1-10.4s39.5-9.2,54.9-13.3c15.4-4.2,28.7-8.1,39.9-11.7c11.2-3.6,19.9-6.4,26.2-8.3c6.3-1.9,12.3-3.9,18-5.8
	c5.7-1.9,17.2-6.1,34.3-12.5c17.2-6.4,33.2-12.8,48.3-19.4c15-6.5,23-9.9,24-10c1-0.1,8.2-3.3,21.7-9.4
	c13.4-6.1,25.6-11.7,36.5-16.7c10.9-5,21.6-10,32.2-15c10.6-5,23.7-11.5,39.5-19.6l23.6-12.1L793.3,131L793.3,131z"/>
<path class="st1" d="M791.4,175.4h5.2l22.3,11.4c14.9,7.6,24.7,12.5,29.4,14.9c4.8,2.4,21,10,48.7,22.9c27.7,12.9,42,19.5,43,19.6
	c0.9,0.1,8.3,3.2,22.1,9.2c13.8,6,24.4,10.5,31.8,13.3c7.4,2.9,18.2,6.8,32.2,11.8c14.1,5,22.9,8.1,26.7,9.4
	c3.7,1.3,8.4,2.9,13.9,4.7c5.6,1.8,12.7,4.1,21.5,6.7c8.8,2.6,19.9,5.8,33.4,9.4c13.5,3.7,26.7,6.9,39.4,9.8
	c12.7,2.9,21,4.7,24.7,5.5c3.7,0.8,15.5,3,35.4,6.7c19.9,3.7,32.4,5.9,37.4,6.7c5,0.8,17.4,2.7,37,5.9c19.6,3.1,29.6,4.7,29.8,4.7
	c0.3,0,9.8,1.8,28.6,5.5c18.8,3.7,28.3,5.6,28.4,5.7l0.2,0.2l-1.2,58.4c-0.8,38.9-2.8,89.3-6,151c-3.2,61.7-5.7,104.8-7.6,129.4
	c-1.9,24.6-4,45.6-6.4,63.1s-5.2,34.1-8.4,49.8c-3.2,15.7-6.6,31.5-10.3,47.4c-3.7,15.9-7,29.9-9.9,42c-2.9,12-6.4,25-10.3,38.8
	c-4,13.9-6.4,22.2-7.2,25.1c-0.8,2.9-2,6.5-3.6,11c-1.6,4.4-3.4,9.9-5.6,16.5c-2.1,6.5-5.4,15.9-9.9,28.2
	c-4.5,12.3-8.2,22.1-11.1,29.4c-2.9,7.3-6.5,16.1-10.7,26.3c-4.2,10.2-9.7,22.5-16.3,36.9c-6.6,14.4-10.6,22.7-11.9,25.1
	c-1.3,2.4-6.2,10.9-14.5,25.7c-8.4,14.8-13.4,23.5-15.1,26.3c-1.7,2.7-5.8,9.7-12.3,20.8c-6.5,11.1-10.7,18.2-12.7,21.2
	c-2,3-5,7.7-9.2,14.1c-4.1,6.4-7.4,11.4-9.9,14.9c-2.5,3.5-5.4,7.7-8.8,12.5c-3.3,4.8-6.5,9.3-9.5,13.3c-3.1,4.1-5.4,7.4-7.2,10.2
	c-1.7,2.7-4.2,6.3-7.6,10.6s-6.5,8.6-9.5,12.9c-3.1,4.3-6.4,8.8-9.9,13.3s-6.6,8.5-9.2,11.8c-2.5,3.3-7.9,9.5-16.1,18.6
	c-8.2,9.1-17.9,19.6-29,31.4c-11.1,11.8-21,21.8-29.4,30.2c-8.5,8.4-14.1,13.7-16.9,15.9c-2.8,2.2-9.3,7.8-19.5,16.9
	c-10.2,9-16.4,14.5-18.7,16.5c-2.3,2-7.8,6.8-16.7,14.5c-8.9,7.7-14.7,12.7-17.5,14.9c-2.8,2.2-6,4.8-9.5,7.8s-8.6,7.1-14.9,12.4
	c-6.4,5.2-11.2,9.1-14.5,11.6c-3.3,2.5-6.5,4.7-9.5,6.7c-3.1,2-8.6,5.4-16.7,10.2c-8.1,4.8-13.4,8.1-15.9,9.8
	c-2.5,1.7-5.4,3.5-8.6,5.3c-3.2,1.8-6.5,3.9-9.9,6.3c-3.4,2.4-6,4.1-7.6,5.1c-1.6,1-5,2.9-10.3,5.5c-5.3,2.6-11.7,5.6-19.1,9
	c-7.4,3.4-12.6,5.6-15.5,6.7l-4.4,1.6l-4.8-1.2c-3.2-0.8-6.6-2.1-10.3-3.9c-3.7-1.8-9.9-5-18.7-9.4c-8.8-4.4-13.8-7.2-15.1-8.2
	c-1.3-1-4.7-3.3-10.1-6.9c-5.4-3.5-9.5-6.1-12.3-7.8c-2.8-1.7-8.2-5-16.3-9.8c-8.1-4.8-13.7-8.2-16.7-10.2c-3.1-2-6.2-4.2-9.5-6.7
	c-3.3-2.5-7.1-5.4-11.3-8.8c-4.2-3.4-9.9-8-16.9-13.9c-7-5.9-13.1-11-18.3-15.3c-5.2-4.3-12.7-10.8-22.7-19.6
	c-9.9-8.8-16.3-14.2-19.1-16.5c-2.8-2.2-8.9-7.4-18.3-15.7c-9.4-8.2-14.7-12.9-15.7-13.9c-1.1-1-5.8-5.7-14.1-13.9
	c-8.4-8.2-14.2-14.1-17.5-17.6c-3.3-3.5-10.6-11.4-21.9-23.5c-11.3-12.2-18-19.6-20.3-22.3c-2.3-2.7-5.6-6.8-9.9-12.2
	c-4.4-5.4-7.8-9.7-10.3-12.9c-2.5-3.3-5-6.7-7.6-10.2c-2.5-3.5-5.2-7.2-8-11c-2.8-3.8-5.3-7.2-7.6-10.2c-2.3-3-4.2-5.7-5.8-8
	c-1.6-2.4-3.8-5.4-6.6-9.2c-2.8-3.8-5.2-7.2-7.2-10.2c-2-3-4.6-6.9-8-11.8c-3.3-4.8-5.8-8.6-7.6-11.4c-1.7-2.7-4.5-7.1-8.4-12.9
	c-3.8-5.9-6.4-9.9-7.6-12.2c-1.2-2.2-4.5-7.8-9.9-16.9c-5.4-9-9-14.9-10.7-17.6c-1.7-2.7-6-10.3-12.9-22.5
	c-6.9-12.3-12.1-21.6-15.5-27.8c-3.4-6.3-6.5-12.2-9.2-17.6c-2.7-5.5-6.4-13.7-11.1-24.7c-4.8-11-7.2-16.6-7.2-16.9s-2.4-6.3-7.2-18
	c-4.8-11.8-8.5-21-11.1-27.8c-2.7-6.8-6.4-17.1-11.1-31c-4.8-13.9-9.5-28.6-14.3-44.3c-4.8-15.7-10.1-34.8-15.9-57.2
	c-5.8-22.5-9.9-39.2-12.3-50.2c-2.4-11-5.7-26.9-9.9-47.8c-4.2-20.9-6.8-34.6-7.6-41.2c-0.8-6.5-2.5-26.5-5.2-60
	c-2.7-33.5-4.4-58.7-5.2-75.7c-0.8-17-1.7-35-2.8-54.1c-1.1-19.1-2.5-50.3-4.4-93.7c-1.9-43.4-2.8-74.1-2.8-92.1v-27.1l2.6-1.4
	c1.7-0.9,6.4-2,14.1-3.3c7.7-1.3,18.3-3,31.8-5.1c13.5-2.1,34.1-5.5,61.7-10.2c27.6-4.7,47.3-8.1,59.3-10.2
	c11.9-2.1,27.7-5.4,47.3-9.8s36.6-8.6,50.9-12.5c14.3-3.9,26.7-7.6,37-11c10.3-3.4,18.4-6,24.3-7.8c5.8-1.8,11.4-3.7,16.7-5.5
	c5.3-1.8,15.9-5.8,31.8-11.8c15.9-6,30.8-12.1,44.8-18.2c13.9-6.1,21.4-9.3,22.3-9.4c0.9-0.1,7.6-3.1,20.1-8.8
	c12.5-5.8,23.7-11,33.8-15.7c10.1-4.7,20-9.4,29.8-14.1c9.8-4.7,22-10.8,36.6-18.4l21.9-11.4L791.4,175.4L791.4,175.4z"/>
<g>
	<path class="st3" d="M1096.1,1103.1h-76.2v153h-153v-153H484.5l85.3-611.5h153l-66.6,459.1h210.6V568.3h153v382.3h76.2V1103.1z"/>
</g>
<path class="st4" d="M794.3,70.8L794.3,70.8L794.3,70.8l6,0l25.9,13c17.3,8.7,28.7,14.4,34.3,17.1c5.6,2.7,24.5,11.5,56.7,26.3
	c32.3,14.8,48.9,22.3,50,22.5c1.1,0.1,9.6,3.7,25.7,10.6c16.1,6.9,28.4,12,37,15.3c8.6,3.3,21.1,7.8,37.5,13.5
	c16.4,5.7,26.7,9.3,31,10.8c4.3,1.5,9.7,3.3,16.2,5.4c6.5,2.1,14.8,4.6,25,7.6c10.2,3,23.2,6.6,38.9,10.8c15.7,4.2,31,7.9,45.8,11.2
	c14.8,3.3,24.4,5.4,28.7,6.3c4.3,0.9,18.1,3.4,41.2,7.6s37.7,6.7,43.5,7.6c5.9,0.9,20.2,3.1,43.1,6.7c22.8,3.6,34.4,5.4,34.7,5.4
	s11.4,2.1,33.3,6.3c21.9,4.2,33,6.4,33.1,6.5l0.2,0.2l-1.4,67c-0.9,44.7-3.2,102.4-6.9,173.1s-6.6,120.2-8.8,148.4
	c-2.2,28.2-4.6,52.3-7.4,72.4c-2.8,20.1-6,39.1-9.7,57.1c-3.7,18-7.7,36.1-12,54.4c-4.3,18.3-8.2,34.3-11.6,48.1
	c-3.4,13.8-7.4,28.6-12,44.5c-4.6,15.9-7.4,25.5-8.3,28.8c-0.9,3.3-2.3,7.5-4.2,12.6c-1.9,5.1-4,11.4-6.5,18.9
	c-2.5,7.5-6.3,18.3-11.6,32.4c-5.2,14.1-9.6,25.3-13,33.7s-7.6,18.4-12.5,30.1c-4.9,11.7-11.3,25.8-19,42.3
	c-7.7,16.5-12.3,26.1-13.9,28.8c-1.5,2.7-7.2,12.5-16.9,29.4c-9.7,16.9-15.6,27-17.6,30.1c-2,3.1-6.8,11.1-14.4,23.8
	c-7.6,12.7-12.5,20.8-14.8,24.3c-2.3,3.4-5.9,8.8-10.7,16.2c-4.8,7.3-8.6,13-11.6,17.1c-2.9,4-6.3,8.8-10.2,14.4
	c-3.9,5.5-7.6,10.6-11.1,15.3s-6.3,8.5-8.3,11.7c-2,3.1-4.9,7.2-8.8,12.1c-3.9,4.9-7.6,9.9-11.1,14.8c-3.5,4.9-7.4,10-11.6,15.3
	c-4.2,5.2-7.7,9.7-10.7,13.5c-2.9,3.7-9.2,10.9-18.8,21.4c-9.6,10.5-20.8,22.5-33.8,36s-24.4,25-34.3,34.6
	c-9.9,9.6-16.4,15.7-19.7,18.2c-3.2,2.5-10.8,9-22.7,19.3c-11.9,10.3-19.1,16.6-21.8,18.9c-2.6,2.2-9.1,7.8-19.4,16.6
	c-10.3,8.8-17.1,14.5-20.4,17.1c-3.2,2.5-6.9,5.5-11.1,9c-4.2,3.4-10,8.2-17.4,14.2c-7.4,6-13,10.4-16.9,13.3s-7.6,5.4-11.1,7.6
	c-3.5,2.2-10,6.1-19.4,11.7c-9.4,5.5-15.6,9.3-18.5,11.2c-2.9,1.9-6.3,4-10,6.1c-3.7,2.1-7.6,4.5-11.6,7.2s-6.9,4.6-8.8,5.8
	c-1.9,1.2-5.9,3.3-12,6.3s-13.6,6.4-22.2,10.3c-8.6,3.9-14.7,6.4-18.1,7.6l-5.1,1.8L794.3,70.8z"/>
</svg>
